<svg xmlns="http://www.w3.org/2000/svg" viewBox="0 0 41.9 41.9"><defs><style>.cls-1{fill:#4392f1;}</style></defs><title>Plan de travail 1</title><g id="Capa_1" data-name="Capa 1"><path class="cls-1" d="M40.5,24.9l-2.5-4,2.4-3.7a3,3,0,0,0,.3-2.6,3.09,3.09,0,0,0-1.8-1.9L34.5,11l-.2-4.7A2.94,2.94,0,0,0,33.1,4a2.78,2.78,0,0,0-2.5-.5L26.1,4.7,23.2,1.1A2.84,2.84,0,0,0,20.9,0a3.64,3.64,0,0,0-2.3.9L15.7,4.5,11.2,3.3a3.2,3.2,0,0,0-2.5.5A3.1,3.1,0,0,0,7.5,6.1l-.2,4.7L2.9,12.5a3.08,3.08,0,0,0-1.8,1.9A3,3,0,0,0,1.4,17l2.4,3.9L1.3,24.8A3,3,0,0,0,1,27.4a3.09,3.09,0,0,0,1.8,1.9L7.2,31l.5,4.7A2.94,2.94,0,0,0,8.9,38a2.78,2.78,0,0,0,2.5.5l4.5-1.2,2.9,3.6A2.84,2.84,0,0,0,21.1,42a3,3,0,0,0,2.3-1.1l2.9-3.6,4.5,1.2a3.2,3.2,0,0,0,2.5-.5,3.1,3.1,0,0,0,1.2-2.3l.2-4.7L39,29.4a3.07,3.07,0,0,0,1.8-1.9A3,3,0,0,0,40.5,24.9ZM26.6,12.3l.4-1.2h4.1l-.4,1.2H29.3l-2.5,7.2H25.5L28,12.3Zm-2-1.4c1.3,0,1.7.8,1.2,2.1l-.1.3H24.5l.1-.3c.2-.6,0-.8-.4-.8s-.7.2-.9.8c-.6,1.7,1.8,2,1,4.4a2.85,2.85,0,0,1-2.7,2.1c-1.3,0-1.7-.8-1.2-2.1l.2-.5h1.2l-.2.6c-.2.6-.1.8.4.8s.8-.2,1-.8c.6-1.7-1.8-2-1-4.4C22.5,11.7,23.3,10.9,24.6,10.9Zm-2.5.2-.4,1.2H19.4l-.8,2.3h1.8L20,15.8H18.2l-.9,2.5h2.3l-.4,1.2H15.6l2.9-8.4Zm-8.6,0h2c1.4,0,1.8.6,1.3,1.9l-.1.3A2.46,2.46,0,0,1,15.3,15c.7.3.7.9.4,1.8l-.2.7a2.76,2.76,0,0,1-2.7,2H10.7ZM9,29.5c-1.3,0-1.7-.8-1.2-2.1L9.3,23a2.85,2.85,0,0,1,2.8-2.1c1.3,0,1.7.8,1.2,2.1l-.3.8H11.9l.3-.9c.2-.6,0-.8-.4-.8a1,1,0,0,0-1,.8L9.2,27.4c-.2.6,0,.8.4.8s.8-.2,1-.8l.4-1.2h1.2l-.4,1.1A3.07,3.07,0,0,1,9,29.5Zm5.7-.2L16,25.7H14.5l-1.3,3.6H11.9l2.9-8.4h1.3l-1.3,3.6h1.5l1.3-3.6h1.3L16,29.3Zm4.2.1c-1.3,0-1.8-.8-1.3-2.1l1.5-4.4a2.77,2.77,0,0,1,2.7-2.1c1.3,0,1.8.8,1.3,2.1l-1.5,4.4A2.74,2.74,0,0,1,18.9,29.4Zm4.2-.1H21.8l2.9-8.4H26Zm5.24-1.24,0,.17a.87.87,0,0,1-.61.64.91.91,0,0,1-.92.71.88.88,0,0,1-.39-.09l-.23,0a.92.92,0,0,1-.56.19.94.94,0,0,1-.45-.11l-.1,0a1,1,0,0,1-.89-1.39,1.08,1.08,0,0,1,.15-.67,1,1,0,0,1,.3-.8,1,1,0,0,1,.06-.28,1,1,0,0,1,.17-.56,1,1,0,0,1,.15-.27,1,1,0,0,1,.23-.44A1.05,1.05,0,0,1,25.3,25a1.21,1.21,0,0,1,.05-.25,1,1,0,0,1,.21-.64,1,1,0,0,1,.06-.19v0a.91.91,0,0,1,.22-.6,1.08,1.08,0,0,1,.17-.55,1,1,0,0,1,.06-.17,1,1,0,0,1,.58-1.13,1,1,0,0,1,.13-.17.89.89,0,0,1,.59-.52.88.88,0,0,1,.53-.37.91.91,0,0,1,.68-.28h.07a1,1,0,0,1,.43-.09l.17,0A1,1,0,0,1,29.5,20a.89.89,0,0,1,.83.49,1.05,1.05,0,0,1,.21,1.18,1.06,1.06,0,0,1-.16.72,1,1,0,0,1-.24.43,1,1,0,0,1-.32.85.92.92,0,0,1-.13.15,1,1,0,0,1-1.81-.12l-.19,0a1.1,1.1,0,0,1-.05.16s0,0,0,.06v0a1,1,0,0,1-.06.29c.17.28.39.56.59.87a1,1,0,0,1,.71,1.59,1,1,0,0,1-.35.78,1,1,0,0,1-.17.38A1,1,0,0,1,28.34,28.06Zm6.26-6H32.3l-.8,2.3h1.8l-.4,1.2H31.1l-.9,2.5h2.3l-.4,1.2H28.5l2.9-8.4H35Z"/><path class="cls-1" d="M21.4,22a1,1,0,0,0-1,.8l-1.6,4.5c-.2.6,0,.8.4.8a1,1,0,0,0,1-.8l1.6-4.5C22,22.3,21.8,22,21.4,22Z"/><path class="cls-1" d="M30.82,19.93a19.52,19.52,0,0,1-2.76-.21,5.2,5.2,0,0,1-1.32.22A5.37,5.37,0,0,1,26.1,22a5,5,0,0,1-.67,1.37A5.22,5.22,0,0,1,24.1,27a5.39,5.39,0,0,1-.28.88,5.77,5.77,0,0,1,0,1.73c.1.32.21.63.34.92a5.56,5.56,0,0,1,1-.1,5.34,5.34,0,0,1,1.48.2c.22-.09.44-.18.65-.29s.33-.34.5-.5a5.13,5.13,0,0,1,1-2.28,5.26,5.26,0,0,1,.67-1.79,5.19,5.19,0,0,1,.87-2.42,8.11,8.11,0,0,1,.94-2.55A4.84,4.84,0,0,1,30.82,19.93ZM30,23l-.3.8h-1.1l.3-.9c.2-.6,0-.8-.4-.8a1,1,0,0,0-1,.8l-1.6,4.5c-.2.6,0,.8.4.8s.8-.2,1-.8l.4-1.2h1.2l-.4,1.1a3.07,3.07,0,0,1-2.8,2.2c-1.3,0-1.7-.8-1.2-2.1L26,23a2.85,2.85,0,0,1,2.8-2.1C30.11,20.9,30.51,21.7,30,23Z"/><path class="cls-1" d="M14.08,17.5l.26-.73c.27-.78.1-1-.49-1h-.59l-.9,2.58h.76C13.55,18.33,13.86,18.12,14.08,17.5Z"/><path class="cls-1" d="M14,14.34h-.52l.77-2.22h.64c.47,0,.58.26.37.86l-.16.47A1.09,1.09,0,0,1,14,14.34Z"/></g></svg>