<svg id="Calque_1" data-name="Calque 1" xmlns="http://www.w3.org/2000/svg" viewBox="0 0 792 612"><defs><style>.cls-1{fill:#d71517;}</style></defs><title>Plan de travail 1</title><polygon class="cls-1" points="128.33 408.49 116.88 379 227.53 384.68 222.56 431.89 128.33 408.49"/><polygon class="cls-1" points="154.84 180 0 253.15 23.95 363.37 55.53 363.37 50.08 284.52 54.92 283.02 73.91 363.37 106.73 363.37 105.51 267.32 110.36 265.82 126.96 363.37 161.7 363.37 169.89 247.36 174.74 245.85 183.33 363.37 229.27 363.37 245.44 202.04 154.84 180"/><path class="cls-1" d="M766.3,404.46,722.22,397l.19-5.78,42.16-1.57-1.06-11h-54.2l-2.77,27.65,44.81,7.79.2,5.08L704.93,421l-1.14,11H769Zm-420.91-4.13-.68,10,16,.54-.2,10.13L327,420l1.46-29.27,46.17-1.07-.67-11H314.3L309,432h68l-1.76-32.19ZM633,419.95l-.32-9.2,31.79-.38.29-10-32.46-.4-.32-9.31,42.76-1,.35-11H617.43L615.72,432h60.47l-.42-11Z"/><polygon class="cls-1" points="586.45 432 581.11 378.65 565.75 378.65 543.7 404.08 521.63 378.65 506.28 378.65 500.93 432 518.97 432 520.7 397.39 543.7 420.98 566.69 397.39 568.42 432 586.45 432"/><polygon class="cls-1" points="510.65 183.26 474.55 183.26 471.26 348.26 514.88 348.26 510.65 183.26"/><path class="cls-1" d="M657.41,183.33H544.87l-4.38,164.93H665.41Zm-34.91,129-39.83,1.29-1.32-97L623,217.88Z"/><polygon class="cls-1" points="792 219.37 787.98 183.26 677.09 183.26 678.03 215.43 713.5 216.65 717.13 348.26 760.83 348.26 747.76 217.84 792 219.37"/><path class="cls-1" d="M403.94,348.26h47.37l-30.87-74.05,24.64-13.46-16.83-77.49H307.32l-4,35.76,27.05-.9-13,130.14h42.34l1.15-41.49,30.51-16.66ZM363.3,217l34.79-1.16,4,32.87-40.15,19Z"/><path class="cls-1" d="M457.15,432h18.26L461,378.64H418.12L403.67,432h18.26l2.83-13.46,29.65.38ZM427,408l3.67-17.46,17.61-.8,3.68,17.52Z"/></svg>