<svg id="Capa_1" data-name="Capa 1" xmlns="http://www.w3.org/2000/svg" viewBox="0 0 31.92 31.92"><defs><style>.cls-1{fill:#4392f1;}.cls-2{fill:gold;}</style></defs><title>Plan de travail 1</title><polygon class="cls-1" points="20.57 30.14 29.79 30.14 29.79 24.36 20.57 24.36 20.57 21.25 11.35 21.25 11.35 27.47 2.13 27.47 2.13 30.14 11.35 30.14 20.57 30.14"/><rect class="cls-1" x="1.48" y="30.6" width="28.96" height="1.32"/><circle class="cls-1" cx="17.83" cy="2.7" r="2.7"/><path class="cls-2" d="M22.06,11.93a2.48,2.48,0,1,0,2.48-2.48A2.48,2.48,0,0,0,22.06,11.93Zm4.41,0A1.93,1.93,0,1,1,24.55,10,1.93,1.93,0,0,1,26.47,11.93Z"/><path class="cls-2" d="M24.43,11a.46.46,0,0,1-.16.16.66.66,0,0,1-.22.09,1,1,0,0,1-.25,0v.49h.56v1.38h.71V10.73H24.5A.52.52,0,0,1,24.43,11Z"/><path class="cls-1" d="M15.38,11.06l.05,1h.14v1.07l-1.14,2.11-2.25-1.19-.88,1.67h0l-.24.45.59.31L11.9,16l3.16,1.68L15.94,16h0l1.57-2.91h.68l.8,3.25-1.9,2.8h0l2,1.32.46-.68-.42-.28L21,16.71h0l-.88-3.57V12.07h.17l.34-4.42,1.52-.92L23.54,9h2.23l2-3.49h0V2.24H21.38V3.51h0V5.21l-1.28.6H18.81L17.78,7l-1-1.19-1.94.36v0L10.65,3.52l-1,1.54L15.1,8.52Zm7.71-7.43,3.11,0V5.34L24.72,7.86,23.41,6l1.34-.81-.3-1.38-1.37.64Z"/></svg>