<svg width="128" height="128" xmlns="http://www.w3.org/2000/svg">

 <g>
  <title>background</title>
  <rect fill="none" id="canvas_background" height="402" width="582" y="-1" x="-1"/>
 </g>
 <g>
  <title>Layer 1</title>
  <path stroke="null" fill="#5c80bc" clip-rule="evenodd" fill-rule="evenodd" id="XMLID_1_" d="m35.862173,80.415981l16.700871,-16.599654l-16.700871,-16.599654c-3.137739,-3.137739 -3.137739,-8.299827 0,-11.437566c3.137739,-3.137739 8.299827,-3.137739 11.437566,0l16.700871,16.599654l16.599654,-16.599654c3.137739,-3.137739 8.299827,-3.137739 11.437566,0c3.137739,3.137739 3.137739,8.299827 0,11.437566l-16.599654,16.599654l16.599654,16.599654c3.137739,3.137739 3.137739,8.299827 0,11.437566c-3.137739,3.137739 -8.299827,3.137739 -11.437566,0l-16.599654,-16.599654l-16.599654,16.700871c-3.137739,3.137739 -8.299827,3.137739 -11.437566,0c-3.238957,-3.238957 -3.238957,-8.299827 -0.101217,-11.538784z" class="st1"/>
 </g>
</svg>