<svg id="Ñëîé_1" data-name="Ñëîé 1" xmlns="http://www.w3.org/2000/svg" xmlns:xlink="http://www.w3.org/1999/xlink" viewBox="0 0 600 450"><defs><style>.cls-1{fill:none;}.cls-2{clip-path:url(#clip-path);}.cls-3{fill:#0014ff;}.cls-4{fill:#0015ff;}.cls-5{fill:#0016ff;}.cls-6{fill:#0017ff;}.cls-7{fill:#0018ff;}.cls-8{fill:#0019ff;}.cls-9{fill:#001aff;}.cls-10{fill:#001bff;}.cls-11{fill:#001cff;}.cls-12{fill:#001dff;}.cls-13{fill:#001eff;}.cls-14{fill:#001fff;}.cls-15{fill:#0020ff;}.cls-16{fill:#0021ff;}.cls-17{fill:#02f;}.cls-18{fill:#0023ff;}.cls-19{fill:#0024ff;}.cls-20{fill:#0025ff;}.cls-21{fill:#0026ff;}.cls-22{fill:#0027ff;}.cls-23{fill:#0028ff;}.cls-24{fill:#0029ff;}.cls-25{fill:#002aff;}.cls-26{fill:#002bff;}.cls-27{fill:#002cff;}.cls-28{fill:#002dff;}.cls-29{fill:#002eff;}.cls-30{fill:#002fff;}.cls-31{fill:#0030ff;}.cls-32{fill:#0031ff;}.cls-33{fill:#0032ff;}.cls-34{fill:#03f;}.cls-35{fill:#0034ff;}.cls-36{fill:#0035ff;}.cls-37{fill:#0036ff;}.cls-38{fill:#0037ff;}.cls-39{fill:#0038ff;}.cls-40{fill:#0039ff;}.cls-41{fill:#003aff;}.cls-42{fill:#003bff;}.cls-43{fill:#003cff;}.cls-44{fill:#003dff;}.cls-45{fill:#003eff;}.cls-46{fill:#003fff;}.cls-47{fill:#0040ff;}.cls-48{fill:#0041ff;}.cls-49{fill:#0042ff;}.cls-50{fill:#0043ff;}.cls-51{fill:#04f;}.cls-52{fill:#0045ff;}.cls-53{fill:#0046ff;}.cls-54{fill:#0047ff;}.cls-55{fill:#0048ff;}.cls-56{fill:#0049ff;}.cls-57{fill:#004aff;}.cls-58{fill:#004bff;}.cls-59{fill:#004cff;}.cls-60{fill:#004dff;}.cls-61{fill:#004eff;}.cls-62{fill:#004fff;}.cls-63{fill:#0050ff;}.cls-64{fill:#0051ff;}.cls-65{fill:#0052ff;}.cls-66{fill:#0053ff;}.cls-67{fill:#0054ff;}.cls-68{fill:#05f;}.cls-69{fill:#0056ff;}.cls-70{fill:#0057ff;}.cls-71{fill:#0058ff;}.cls-72{fill:#0059ff;}.cls-73{fill:#005aff;}.cls-74{fill:#005bff;}.cls-75{fill:#005cff;}.cls-76{fill:#005dff;}.cls-77{fill:#005eff;}.cls-78{fill:#005fff;}.cls-79{fill:#0060ff;}.cls-80{fill:#0161ff;}.cls-81{fill:#0262ff;}.cls-82{fill:#0363ff;}.cls-83{fill:#0564ff;}.cls-84{fill:#0666ff;}.cls-85{fill:#0767ff;}.cls-86{fill:#0868ff;}.cls-87{fill:#0969ff;}.cls-88{fill:#0a6aff;}.cls-89{fill:#0c6bff;}.cls-90{fill:#0d6cff;}.cls-91{fill:#0e6dff;}.cls-92{fill:#0f6eff;}.cls-93{fill:#106fff;}.cls-94{fill:#1270ff;}.cls-95{fill:#1371ff;}.cls-96{fill:#1472ff;}.cls-97{fill:#1574ff;}.cls-98{fill:#1675ff;}.cls-99{fill:#1876ff;}.cls-100{fill:url(#Áåçûìÿííûé_ãðàäèåíò_3);}.cls-101{fill:url(#Áåçûìÿííûé_ãðàäèåíò_3-2);}.cls-102{fill:url(#Áåçûìÿííûé_ãðàäèåíò_2);}.cls-103{fill:#33c2ff;}.cls-104{fill:#32a9ff;}.cls-105{fill:#0b0244;opacity:0.4;}</style><clipPath id="clip-path"><polygon class="cls-1" points="245.06 251.51 425.65 96.52 260.79 209.87 245.06 251.51"/></clipPath><linearGradient id="Áåçûìÿííûé_ãðàäèåíò_3" x1="1.32" y1="348.74" x2="-236.28" y2="317.43" gradientTransform="matrix(0.59, 0.5, -1.19, 0.58, 734.43, -43.8)" gradientUnits="userSpaceOnUse"><stop offset="0" stop-color="#33baff"/><stop offset="0.56" stop-color="#2585ff"/><stop offset="1" stop-color="#1b60ff"/></linearGradient><linearGradient id="Áåçûìÿííûé_ãðàäèåíò_3-2" x1="877.54" y1="220.03" x2="1007.62" y2="201.07" gradientTransform="matrix(-0.87, -0.34, -1, 0.69, 1384.73, 332.14)" xlink:href="#Áåçûìÿííûé_ãðàäèåíò_3"/><linearGradient id="Áåçûìÿííûé_ãðàäèåíò_2" x1="207.82" y1="273.11" x2="26.18" y2="197.51" gradientTransform="matrix(0.87, 0.5, -0.87, 0.5, 440.27, 1.3)" gradientUnits="userSpaceOnUse"><stop offset="0" stop-color="#2f8bff"/><stop offset="0.14" stop-color="#2776ff"/><stop offset="0.54" stop-color="#1241ff"/><stop offset="0.84" stop-color="#0520ff"/><stop offset="1" stop-color="#0014ff"/></linearGradient></defs><title>Plan de travail 29</title><g class="cls-2"><rect class="cls-3" x="245.06" y="96.52" width="180.59" height="154.98"/><path class="cls-3" d="M244.06,231.44V153.08H238c12.35-24.09,30.21-45.78,52.29-64v6.43H426.65v157H244.06Z"/><path class="cls-3" d="M244.06,231.44V153.68h-4.37c12.25-23.9,30-45.43,51.89-63.5v5.35H426.65v157H244.06Z"/><path class="cls-4" d="M244.06,231.44V154.28h-2.65c12.16-23.72,29.75-45.08,51.49-63v4.26H426.65v157H244.06Z"/><path class="cls-4" d="M244.06,231.44V154.88h-.94c12.06-23.53,29.52-44.73,51.1-62.53v3.17H426.65v157H244.06Z"/><path class="cls-5" d="M244.06,231.44V164.34H240.6q2-4.48,4.24-8.86c12-23.35,29.29-44.38,50.7-62v2.09H426.65v157H244.06Z"/><path class="cls-5" d="M244.06,231.44V173.86h-5.39a172,172,0,0,1,7.89-17.79c11.88-23.17,29.06-44,50.3-61.55v1h129.8v157H244.06Z"/><path class="cls-6" d="M244.06,231.44V174.32h-3.62a170.6,170.6,0,0,1,7.83-17.65c11.78-23,28.83-43.68,49.9-61.06q4-3.26,8.09-6.36v6.27H426.65v157H244.06Z"/><path class="cls-6" d="M244.06,231.44V174.78h-1.84A169.22,169.22,0,0,1,250,157.27c11.69-22.8,28.6-43.33,49.5-60.57q3.92-3.23,8-6.31v5.14H426.65v157H244.06Z"/><path class="cls-7" d="M244.06,231.44V193.35h-5.7a164.58,164.58,0,0,1,13.35-35.48c11.59-22.61,28.37-43,49.1-60.08q3.89-3.21,8-6.26v4H426.65v157H244.06Z"/><path class="cls-7" d="M244.06,231.44V193.66h-3.88a163.25,163.25,0,0,1,13.24-35.19c11.5-22.43,28.14-42.63,48.7-59.59Q306,95.69,310,92.66v2.86H426.65v157H244.06Z"/><path class="cls-8" d="M237.42,231.44c0-51.35,25.23-97.84,66-131.49q3.82-3.15,7.83-6.16v1.72H426.65v157H244.06V231.44Z"/><path class="cls-8" d="M239.29,231.44c0-50.92,25-97,65.47-130.4q7.58-6.26,15.87-11.9v6.38h106v157H244.06V231.44Z"/><path class="cls-9" d="M241.15,231.44c0-50.5,24.81-96.22,64.92-129.31q7.52-6.21,15.74-11.8v5.2H426.65v157H244.06V231.44Z"/><path class="cls-10" d="M243,231.44c0-50.08,24.6-95.41,64.38-128.23q7.46-6.15,15.61-11.7v4H426.65v157H245.55v6.55q-.83-4.5-1.4-9.08A151.68,151.68,0,0,1,243,231.44Z"/><path class="cls-10" d="M244.88,231.44c0-49.65,24.39-94.6,63.83-127.14q7.39-6.1,15.48-11.6v2.83H426.65v157H247.39v6.32q-.83-4.46-1.39-9A150.39,150.39,0,0,1,244.88,231.44Z"/><path class="cls-11" d="M246.74,231.44c0-49.23,24.18-93.79,63.29-126.05q7.33-6,15.34-11.51v1.64H426.65v157H249.23v6.08q-.82-4.43-1.37-8.92A149.13,149.13,0,0,1,246.74,231.44Z"/><path class="cls-12" d="M248.6,231.44c0-48.8,24-93,62.74-125q7.27-6,15.21-11.41v.45h100.1v157H251.07v5.85q-.81-4.39-1.36-8.84A147.83,147.83,0,0,1,248.6,231.44Z"/><path class="cls-12" d="M250.46,231.44c0-48.38,23.77-92.18,62.19-123.88q7.2-5.94,15.08-11.31,3.93-2.68,8-5.2v4.47h90.89v157H252.91v5.62q-.81-4.35-1.35-8.77A146.55,146.55,0,0,1,250.46,231.44Z"/><path class="cls-13" d="M252.33,231.44c0-48,23.56-91.37,61.65-122.79q7.14-5.89,14.95-11.21,3.9-2.65,8-5.16v3.24h89.78v157H254.75v5.38q-.8-4.31-1.34-8.69A145.26,145.26,0,0,1,252.33,231.44Z"/><path class="cls-14" d="M254.19,231.44c0-47.53,23.35-90.56,61.1-121.71a206.39,206.39,0,0,1,30.88-21v6.81h80.48v157H256.59v5.15q-.79-4.27-1.33-8.61A144,144,0,0,1,254.19,231.44Z"/><path class="cls-15" d="M256.05,231.44c0-47.1,23.14-89.75,60.56-120.62A204.54,204.54,0,0,1,347.21,90v5.53h79.44v157H258.43v4.91q-.78-4.24-1.31-8.54A142.68,142.68,0,0,1,256.05,231.44Z"/><path class="cls-15" d="M257.91,231.44c0-46.68,22.93-88.94,60-119.53a202.69,202.69,0,0,1,30.32-20.64v4.26h78.4v157H260.27v4.68q-.78-4.2-1.3-8.46A141.4,141.4,0,0,1,257.91,231.44Z"/><path class="cls-16" d="M259.78,231.44c0-46.26,22.73-88.13,59.47-118.45a200.85,200.85,0,0,1,30-20.45v3h77.36v157H262.12V257q-.77-4.16-1.29-8.38A140.11,140.11,0,0,1,259.78,231.44Z"/><path class="cls-17" d="M261.64,231.44c0-45.83,22.52-87.32,58.92-117.36a199,199,0,0,1,29.77-20.27v1.71h76.32v157H264v4.21q-.76-4.12-1.28-8.31A138.83,138.83,0,0,1,261.64,231.44Z"/><path class="cls-17" d="M263.5,231.44c0-45.41,22.31-86.52,58.38-116.27a197.18,197.18,0,0,1,29.5-20.08v.43h75.28v157H265.8v4q-.76-4.08-1.27-8.23A137.55,137.55,0,0,1,263.5,231.44Z"/><path class="cls-18" d="M265.36,231.44c0-45,22.1-85.71,57.83-115.19a195.33,195.33,0,0,1,29.22-19.89q3.94-2.2,8-4.24v3.4h66.22v157h-159v3.74q-.75-4-1.26-8.15A136.27,136.27,0,0,1,265.36,231.44Z"/><path class="cls-19" d="M267.23,231.44c0-44.56,21.89-84.9,57.28-114.1a193.49,193.49,0,0,1,28.95-19.7q7.8-4.35,16.13-8.08v6h57.07v157H269.48V256q-.74-4-1.24-8.08A135,135,0,0,1,267.23,231.44Z"/><path class="cls-20" d="M269.09,231.44c0-44.13,21.68-84.09,56.74-113A191.64,191.64,0,0,1,354.5,98.91q7.73-4.31,16-8v4.62h56.18v157H271.32v3.27q-.74-4-1.23-8A133.7,133.7,0,0,1,269.09,231.44Z"/><path class="cls-21" d="M271,231.44c0-43.71,21.47-83.28,56.19-111.93a189.79,189.79,0,0,1,28.39-19.33q7.65-4.27,15.82-7.93v3.26h55.29v157H273.16v3q-.73-3.93-1.22-7.92A132.4,132.4,0,0,1,271,231.44Z"/><path class="cls-21" d="M272.82,231.44c0-43.29,21.27-82.47,55.65-110.84a188,188,0,0,1,28.12-19.14q7.58-4.23,15.66-7.85v1.91h54.4v157H275v2.81q-.72-3.89-1.21-7.84A131.13,131.13,0,0,1,272.82,231.44Z"/><path class="cls-22" d="M274.68,231.44c0-42.86,21.06-81.66,55.1-109.75a186.12,186.12,0,0,1,27.84-19q7.51-4.18,15.51-7.77v.56h53.52v157H276.85v2.57q-.71-3.85-1.2-7.77A129.83,129.83,0,0,1,274.68,231.44Z"/><path class="cls-23" d="M276.54,231.44c0-42.44,20.85-80.86,54.56-108.67A192.78,192.78,0,0,1,390.3,89.84v5.68h36.35v157h-148v2.34q-.71-3.82-1.18-7.69A128.53,128.53,0,0,1,276.54,231.44Z"/><path class="cls-24" d="M278.4,231.44c0-42,20.64-80,54-107.58A190.86,190.86,0,0,1,391,91.26v4.27h35.62v157H280.53v2.1q-.7-3.78-1.17-7.61A127.25,127.25,0,0,1,278.4,231.44Z"/><path class="cls-25" d="M280.27,231.44c0-41.59,20.43-79.24,53.47-106.49a188.93,188.93,0,0,1,58-32.28v2.85h34.9v157H282.37v1.87q-.69-3.74-1.16-7.54A126,126,0,0,1,280.27,231.44Z"/><path class="cls-25" d="M282.13,231.44C282.13,190.28,302.35,153,335,126a187,187,0,0,1,57.43-31.95v1.43h34.17v157H284.21v1.64q-.69-3.7-1.15-7.46A124.7,124.7,0,0,1,282.13,231.44Z"/><path class="cls-26" d="M284,231.44c0-40.74,20-77.62,52.37-104.32A185.07,185.07,0,0,1,393.2,95.51v0h33.45v157H286.05v1.4q-.68-3.66-1.14-7.38A123.4,123.4,0,0,1,284,231.44Z"/><path class="cls-27" d="M285.85,231.44c0-40.32,19.81-76.81,51.83-103.23a183.15,183.15,0,0,1,56.25-31.29q7.94-2.77,16.26-4.91v3.51h16.46v157H287.89v1.17q-.67-3.62-1.13-7.31A122.12,122.12,0,0,1,285.85,231.44Z"/><path class="cls-28" d="M287.72,231.44c0-39.89,19.6-76,51.28-102.15a181.22,181.22,0,0,1,55.65-31,201.65,201.65,0,0,1,32.87-8.42l-.87,5.6v157H289.73v.93q-.66-3.59-1.11-7.23A120.83,120.83,0,0,1,287.72,231.44Z"/><path class="cls-29" d="M289.58,231.44c0-39.47,19.39-75.2,50.74-101.06a179.29,179.29,0,0,1,55.06-30.63,199.51,199.51,0,0,1,32.52-8.33l-1.25,4.1v157H291.58v.7q-.66-3.55-1.1-7.15A119.55,119.55,0,0,1,289.58,231.44Z"/><path class="cls-30" d="M291.44,231.44c0-39,19.18-74.39,50.19-100a177.36,177.36,0,0,1,54.47-30.3,197.36,197.36,0,0,1,32.17-8.24l-1.62,2.59v157H293.42V253q-.65-3.51-1.09-7.08A118.25,118.25,0,0,1,291.44,231.44Z"/><path class="cls-30" d="M293.3,231.44c0-38.62,19-73.58,49.65-98.89a175.43,175.43,0,0,1,53.88-30,195.22,195.22,0,0,1,31.82-8.15l-2,1.09v157H295.26v.23q-.64-3.47-1.08-7A117,117,0,0,1,293.3,231.44Z"/><path class="cls-31" d="M295.17,231.44c0-38.19,18.76-72.77,49.1-97.8A173.51,173.51,0,0,1,397.55,104,193.08,193.08,0,0,1,429,95.94h-2.37V252.51H298.57v6.81A115.58,115.58,0,0,1,295.17,231.44Z"/><path class="cls-32" d="M297,231.44c0-37.77,18.56-72,48.56-96.71a171.58,171.58,0,0,1,52.69-29.31,190.94,190.94,0,0,1,31.12-8h-2.75V252.51H300.4V259A114.29,114.29,0,0,1,297,231.44Z"/><path class="cls-33" d="M298.89,231.44c0-37.34,18.35-71.15,48-95.63a169.65,169.65,0,0,1,52.1-29A188.78,188.78,0,0,1,429.77,99h-3.12V252.51H302.22v6.19A113,113,0,0,1,298.89,231.44Z"/><path class="cls-34" d="M300.76,231.44c0-36.92,18.14-70.35,47.46-94.54a167.72,167.72,0,0,1,51.51-28.65,186.64,186.64,0,0,1,30.42-7.79h-3.5v152H304v5.88A111.72,111.72,0,0,1,300.76,231.44Z"/><path class="cls-35" d="M302.62,231.44c0-36.5,17.93-69.54,46.92-93.45a165.79,165.79,0,0,1,50.92-28.32,184.49,184.49,0,0,1,30.07-7.7h-3.87V252.51H305.87v5.57A110.44,110.44,0,0,1,302.62,231.44Z"/><path class="cls-36" d="M304.48,231.44c0-36.07,17.72-68.73,46.37-92.37a163.87,163.87,0,0,1,50.33-28,182.34,182.34,0,0,1,29.72-7.61h-4.25v149h-119v5.26A109.16,109.16,0,0,1,304.48,231.44Z"/><path class="cls-36" d="M306.34,231.44c0-35.65,17.51-67.92,45.83-91.28A161.94,161.94,0,0,1,401.9,112.5,180.2,180.2,0,0,1,431.27,105h-4.63V252.51H309.52v5A107.87,107.87,0,0,1,306.34,231.44Z"/><path class="cls-37" d="M308.21,231.44c0-35.22,17.3-67.11,45.28-90.19a160,160,0,0,1,49.14-27.34,178.05,178.05,0,0,1,29-7.43h-5v146H311.35v4.64A106.59,106.59,0,0,1,308.21,231.44Z"/><path class="cls-38" d="M310.07,231.44c0-34.8,17.1-66.3,44.74-89.11a158.08,158.08,0,0,1,48.55-27A175.91,175.91,0,0,1,432,108h-5.38V252.51H313.17v4.33A105.3,105.3,0,0,1,310.07,231.44Z"/><path class="cls-39" d="M311.93,231.44c0-34.37,16.89-65.49,44.19-88a156.16,156.16,0,0,1,48-26.68,173.76,173.76,0,0,1,28.32-7.25h-5.75v143H315v4A104,104,0,0,1,311.93,231.44Z"/><path class="cls-40" d="M313.79,231.44c0-33.95,16.68-64.69,43.65-86.93a154.23,154.23,0,0,1,47.37-26.35,171.62,171.62,0,0,1,28-7.16h-6.13V252.51H316.82v3.71A102.73,102.73,0,0,1,313.79,231.44Z"/><path class="cls-41" d="M315.66,231.44c0-33.53,16.47-63.88,43.1-85.85a152.3,152.3,0,0,1,46.77-26,169.48,169.48,0,0,1,27.62-7.07h-6.5v140h-108v3.4A101.45,101.45,0,0,1,315.66,231.44Z"/><path class="cls-42" d="M317.52,231.44c0-33.1,16.26-63.07,42.55-84.76A150.37,150.37,0,0,1,406.25,121a167.34,167.34,0,0,1,27.27-7h-6.88v138.5H320.47v3.09A100.17,100.17,0,0,1,317.52,231.44Z"/><path class="cls-43" d="M319.38,231.44c0-32.68,16.05-62.26,42-83.67A148.45,148.45,0,0,1,407,122.41q6.43-2.25,13.18-4,3.37-.86,6.81-1.59h-.31V252.51H322.3v2.78A98.88,98.88,0,0,1,319.38,231.44Z"/><path class="cls-44" d="M321.24,231.44c0-32.25,15.85-61.45,41.46-82.59a146.52,146.52,0,0,1,45-25q6.35-2.22,13-3.93,3.32-.85,6.72-1.57h-.78V252.51H324.12V255A97.59,97.59,0,0,1,321.24,231.44Z"/><path class="cls-45" d="M323.11,231.44c0-31.83,15.64-60.64,40.92-81.5a144.59,144.59,0,0,1,44.41-24.7q6.27-2.19,12.84-3.88,3.28-.84,6.63-1.55h-1.25V252.51H325.95v2.16A96.31,96.31,0,0,1,323.11,231.44Z"/><path class="cls-46" d="M325,231.44c0-31.4,15.43-59.83,40.37-80.41a142.66,142.66,0,0,1,43.81-24.37q6.18-2.16,12.66-3.82,3.24-.83,6.54-1.53h-1.71V252.51H327.77v1.85A95,95,0,0,1,325,231.44Z"/><path class="cls-47" d="M326.83,231.44c0-31,15.22-59,39.83-79.33a140.73,140.73,0,0,1,43.22-24q6.1-2.13,12.49-3.77,3.19-.82,6.45-1.51h-2.18V252.51H329.6v1.54A93.74,93.74,0,0,1,326.83,231.44Z"/><path class="cls-47" d="M328.7,231.44c0-30.55,15-58.22,39.28-78.24a138.81,138.81,0,0,1,42.63-23.71q6-2.1,12.32-3.72,3.15-.81,6.36-1.49h-2.64V252.51H331.42v1.23A92.46,92.46,0,0,1,328.7,231.44Z"/><path class="cls-48" d="M330.56,231.44c0-30.13,14.8-57.41,38.73-77.15a136.88,136.88,0,0,1,42-23.38q5.93-2.07,12.15-3.67,3.11-.8,6.28-1.47h-3.11V252.51h-93.4v.92A91.18,91.18,0,0,1,330.56,231.44Z"/><path class="cls-49" d="M332.42,231.44c0-29.71,14.59-56.6,38.19-76.07a135,135,0,0,1,41.44-23.05q5.85-2,12-3.62,3.06-.79,6.19-1.45h-3.57V252.51H335.07v.62A89.9,89.9,0,0,1,332.42,231.44Z"/><path class="cls-50" d="M334.28,231.44c0-29.28,14.39-55.79,37.64-75a133,133,0,0,1,40.85-22.72q5.77-2,11.81-3.57,3-.77,6.1-1.43h-4V252.51H336.89v.31A88.61,88.61,0,0,1,334.28,231.44Z"/><path class="cls-51" d="M336.15,231.44c0-28.86,14.18-55,37.1-73.89a131.09,131.09,0,0,1,40.26-22.4q5.68-2,11.64-3.51,3-.76,6-1.41h-4.5V252.51H340.13v5.05q-.78-2.5-1.41-5.06A87.32,87.32,0,0,1,336.15,231.44Z"/><path class="cls-52" d="M338,231.44c0-28.43,14-54.17,36.55-72.81a129.17,129.17,0,0,1,39.67-22.07q5.6-2,11.47-3.46,2.93-.75,5.92-1.39h-5V252.51H341.94v4.67q-.77-2.47-1.39-5A86,86,0,0,1,338,231.44Z"/><path class="cls-53" d="M339.87,231.44c0-28,13.76-53.37,36-71.72A127.24,127.24,0,0,1,415,138q5.52-1.92,11.29-3.41,2.89-.74,5.83-1.37h-5.43v119.3H343.74v4.28q-.76-2.43-1.37-4.91A84.76,84.76,0,0,1,339.87,231.44Z"/><path class="cls-54" d="M341.73,231.44c0-27.58,13.55-52.56,35.46-70.63a125.31,125.31,0,0,1,38.48-21.41q5.43-1.9,11.12-3.36h-.15V252.51h-81.1v3.9q-.75-2.39-1.35-4.83A83.47,83.47,0,0,1,341.73,231.44Z"/><path class="cls-55" d="M343.6,231.44c0-27.16,13.34-51.75,34.92-69.55a123.38,123.38,0,0,1,37.89-21.08q5.35-1.87,11-3.31h-.71v115h-79.3V256q-.74-2.36-1.33-4.76A82.19,82.19,0,0,1,343.6,231.44Z"/><path class="cls-56" d="M345.46,231.44c0-26.74,13.13-50.94,34.37-68.46a121.45,121.45,0,0,1,37.3-20.75q5.26-1.84,10.78-3.26h-1.26V252.51h-77.5v3.13q-.72-2.32-1.31-4.68A80.9,80.9,0,0,1,345.46,231.44Z"/><path class="cls-57" d="M347.32,231.44c0-26.31,12.93-50.13,33.82-67.37a119.53,119.53,0,0,1,36.71-20.42q5.18-1.81,10.61-3.2h-1.82V252.51H351v2.75q-.71-2.28-1.29-4.61A79.62,79.62,0,0,1,347.32,231.44Z"/><path class="cls-58" d="M349.18,231.44c0-25.89,12.72-49.32,33.28-66.29a117.6,117.6,0,0,1,36.12-20.09q5.1-1.78,10.44-3.15h-2.37V252.51H354.29v6.81a80.16,80.16,0,0,1-2.8-9A78.33,78.33,0,0,1,349.18,231.44Z"/><path class="cls-59" d="M351,231.44c0-25.46,12.51-48.51,32.73-65.2a115.67,115.67,0,0,1,35.52-19.76q5-1.75,10.27-3.1h-2.92V252.51H356.07v6.35a78.89,78.89,0,0,1-2.75-8.84A77,77,0,0,1,351,231.44Z"/><path class="cls-60" d="M352.91,231.44c0-25,12.3-47.71,32.19-64.11A113.74,113.74,0,0,1,420,147.9q4.93-1.72,10.1-3h-3.48V252.51h-68.8v5.9a77.54,77.54,0,0,1-2.71-8.69A75.77,75.77,0,0,1,352.91,231.44Z"/><path class="cls-61" d="M354.77,231.44c0-24.61,12.09-46.9,31.64-63a111.81,111.81,0,0,1,34.34-19.1q4.85-1.69,9.93-3h-4V252.51h-67v5.44a76.24,76.24,0,0,1-2.66-8.54A74.48,74.48,0,0,1,354.77,231.44Z"/><path class="cls-62" d="M356.64,231.44c0-24.19,11.88-46.09,31.1-61.94a109.89,109.89,0,0,1,33.75-18.77q4.76-1.66,9.75-2.95h-4.59V252.51H361.41v5a74.92,74.92,0,0,1-2.62-8.39A73.2,73.2,0,0,1,356.64,231.44Z"/><path class="cls-63" d="M358.5,231.44c0-23.76,11.68-45.28,30.55-60.85a108,108,0,0,1,33.16-18.44q4.68-1.63,9.58-2.89h-5.14V252.51H363.19V257a73.59,73.59,0,0,1-2.57-8.25A71.91,71.91,0,0,1,358.5,231.44Z"/><path class="cls-64" d="M360.36,231.44c0-23.34,11.47-44.47,30-59.77a106,106,0,0,1,32.56-18.11q4.6-1.6,9.41-2.84h-5.69V252.51H365v4.07a72.3,72.3,0,0,1-2.52-8.1A70.63,70.63,0,0,1,360.36,231.44Z"/><path class="cls-65" d="M362.22,231.44c0-22.92,11.26-43.66,29.46-58.68a104.11,104.11,0,0,1,32-17.78q4.51-1.57,9.24-2.79h-6.25V252.51h-59.9v3.61a71,71,0,0,1-2.48-8A69.35,69.35,0,0,1,362.22,231.44Z"/><path class="cls-66" d="M364.09,231.44c0-22.49,11-42.85,28.91-57.59a102.18,102.18,0,0,1,31.38-17.46q4.43-1.55,9.07-2.74h-6.8v98.85H368.52v3.16a69.65,69.65,0,0,1-2.43-7.81A68.06,68.06,0,0,1,364.09,231.44Z"/><path class="cls-67" d="M365.95,231.44c0-22.07,10.84-42,28.37-56.51a100.25,100.25,0,0,1,30.79-17.13q2.17-.76,4.4-1.43h-2.85v96.13H370.3v2.7a68.35,68.35,0,0,1-2.39-7.66A66.78,66.78,0,0,1,365.95,231.44Z"/><path class="cls-68" d="M367.81,231.44c0-21.64,10.63-41.24,27.82-55.42a98.32,98.32,0,0,1,30.2-16.8q2.13-.74,4.31-1.4h-3.5v94.68H372.08v2.24a67,67,0,0,1-2.34-7.51A65.49,65.49,0,0,1,367.81,231.44Z"/><path class="cls-69" d="M369.67,231.44c0-21.22,10.42-40.43,27.28-54.33a96.39,96.39,0,0,1,29.6-16.47q2.09-.73,4.23-1.38h-4.14v93.24H373.86v1.78a65.73,65.73,0,0,1-2.3-7.36A64.21,64.21,0,0,1,369.67,231.44Z"/><path class="cls-70" d="M371.54,231.44c0-20.79,10.22-39.62,26.73-53.25a94.46,94.46,0,0,1,29-16.14h-.63v90.45h-51v1.33a64.4,64.4,0,0,1-2.25-7.22A62.92,62.92,0,0,1,371.54,231.44Z"/><path class="cls-71" d="M373.4,231.44c0-20.37,10-38.81,26.19-52.16A92.54,92.54,0,0,1,428,163.47h-1.36v89H377.42v.87a63.09,63.09,0,0,1-2.2-7.07A61.64,61.64,0,0,1,373.4,231.44Z"/><path class="cls-72" d="M375.26,231.44c0-19.95,9.8-38,25.64-51.07a90.61,90.61,0,0,1,27.83-15.48h-2.08v87.62H379.2v.41A61.76,61.76,0,0,1,377,246,60.35,60.35,0,0,1,375.26,231.44Z"/><path class="cls-73" d="M377.12,231.44c0-19.52,9.59-37.19,25.1-50a88.68,88.68,0,0,1,27.24-15.15h-2.81v86.2H383.86V259A60,60,0,0,1,377.12,231.44Z"/><path class="cls-74" d="M379,231.44c0-19.1,9.38-36.39,24.55-48.9a86.75,86.75,0,0,1,26.64-14.82h-3.53v84.79H385.57v5.85A58.71,58.71,0,0,1,379,231.44Z"/><path class="cls-75" d="M380.85,231.44c0-18.67,9.17-35.58,24-47.81a84.83,84.83,0,0,1,26.05-14.49h-4.26v83.37H387.29v5.26A57.4,57.4,0,0,1,380.85,231.44Z"/><path class="cls-76" d="M382.71,231.44c0-18.25,9-34.77,23.46-46.73a82.9,82.9,0,0,1,25.46-14.16h-5v82H389v4.66A56.1,56.1,0,0,1,382.71,231.44Z"/><path class="cls-77" d="M384.58,231.44c0-17.82,8.76-34,22.91-45.64A81,81,0,0,1,432.36,172h-5.71v80.54H390.72v4.06A54.79,54.79,0,0,1,384.58,231.44Z"/><path class="cls-78" d="M386.44,231.44c0-17.4,8.55-33.15,22.37-44.55a79,79,0,0,1,24.27-13.5h-6.43v79.12H392.44V256A53.49,53.49,0,0,1,386.44,231.44Z"/><path class="cls-79" d="M388.3,231.44c0-17,8.34-32.34,21.82-43.47a73.7,73.7,0,0,1,11-7.51q3-1.66,6.14-3.08h-.64v75.12H394.16v2.86A52.18,52.18,0,0,1,388.3,231.44Z"/><path class="cls-80" d="M390.16,231.44c0-16.55,8.13-31.53,21.28-42.38a71.87,71.87,0,0,1,10.75-7.32q2.9-1.62,6-3h-1.53v73.77H395.87v2.26A50.88,50.88,0,0,1,390.16,231.44Z"/><path class="cls-81" d="M392,231.44c0-16.13,7.92-30.73,20.73-41.29A70,70,0,0,1,423.23,183q2.82-1.57,5.84-2.93h-2.42v72.41H397.59v1.67A49.57,49.57,0,0,1,392,231.44Z"/><path class="cls-82" d="M393.89,231.44c0-15.7,7.71-29.92,20.19-40.21a68.19,68.19,0,0,1,10.2-6.94q2.75-1.53,5.68-2.85h-3.31v71.06H399.3v1.07A48.27,48.27,0,0,1,393.89,231.44Z"/><path class="cls-83" d="M395.75,231.44c0-15.28,7.51-29.11,19.64-39.12a66.33,66.33,0,0,1,9.92-6.76q2.68-1.49,5.53-2.77h-4.2v69.71H401V253A47,47,0,0,1,395.75,231.44Z"/><path class="cls-84" d="M397.61,231.44c0-14.85,7.3-28.3,19.09-38a64.5,64.5,0,0,1,9.65-6.57q2.6-1.45,5.38-2.69h-5.08v68.36H405.48v4.57a50.17,50.17,0,0,1-2.75-4.7A45.66,45.66,0,0,1,397.61,231.44Z"/><path class="cls-85" d="M399.48,231.44c0-14.43,7.09-27.49,18.55-36.95a62.66,62.66,0,0,1,9.37-6.38h-.75v64.39H407.12v3.84a48.73,48.73,0,0,1-2.67-4.57A44.36,44.36,0,0,1,399.48,231.44Z"/><path class="cls-86" d="M401.34,231.44c0-14,6.88-26.68,18-35.86a60.8,60.8,0,0,1,9.1-6.19h-1.79v63.12H408.76v3.11a47.34,47.34,0,0,1-2.59-4.43A43.05,43.05,0,0,1,401.34,231.44Z"/><path class="cls-87" d="M403.2,231.44c0-13.58,6.67-25.87,17.46-34.77a59,59,0,0,1,8.82-6h-2.83v61.84H413.38v6.43a47.16,47.16,0,0,1-5.5-8.35A41.75,41.75,0,0,1,403.2,231.44Z"/><path class="cls-88" d="M405.06,231.44c0-13.16,6.46-25.07,16.91-33.69a57.12,57.12,0,0,1,8.55-5.82h-3.87v60.57H414.93v5.57A45.68,45.68,0,0,1,409.6,250,40.44,40.44,0,0,1,405.06,231.44Z"/><path class="cls-89" d="M406.93,231.44c0-12.73,6.25-24.26,16.37-32.6a55.27,55.27,0,0,1,8.27-5.63h-4.92v59.29H416.47v4.71a44.21,44.21,0,0,1-5.15-7.83A39.14,39.14,0,0,1,406.93,231.44Z"/><path class="cls-90" d="M408.79,231.44c0-12.31,6-23.45,15.82-31.51a53.44,53.44,0,0,1,8-5.44h-6v58H418v3.85a42.73,42.73,0,0,1-5-7.57A37.83,37.83,0,0,1,408.79,231.44Z"/><path class="cls-91" d="M410.65,231.44c0-11.88,5.84-22.64,15.28-30.43a51.6,51.6,0,0,1,7.72-5.25h-7v56.75h-7.09v3a41.26,41.26,0,0,1-4.81-7.31A36.53,36.53,0,0,1,410.65,231.44Z"/><path class="cls-92" d="M412.52,231.44c0-11.46,5.63-21.83,14.73-29.34h-.6v50.4H421.1v2.13a39.78,39.78,0,0,1-4.64-7A35.22,35.22,0,0,1,412.52,231.44Z"/><path class="cls-93" d="M414.38,231.44c0-11,5.42-21,14.18-28.25h-1.91v49.32h-4v1.28a38.31,38.31,0,0,1-4.47-6.79A33.92,33.92,0,0,1,414.38,231.44Z"/><path class="cls-94" d="M416.24,231.44c0-10.61,5.21-20.21,13.64-27.17h-3.23v48.23l3.23,6.1C421.45,251.66,416.24,242.05,416.24,231.44Z"/><path class="cls-95" d="M418.1,231.44c0-10.18,5-19.41,13.09-26.08h-4.55v47.14l4.55,5C423.11,250.85,418.1,241.63,418.1,231.44Z"/><path class="cls-96" d="M420,231.44c0-9.76,4.8-18.6,12.55-25h-5.86v46.06l5.86,3.93C424.76,250,420,241.2,420,231.44Z"/><path class="cls-97" d="M421.83,231.44A28.7,28.7,0,0,1,425,218.28a32.42,32.42,0,0,1,3.78-5.74h-2.18v37.81h2.18A32.43,32.43,0,0,1,425,244.6,28.7,28.7,0,0,1,421.83,231.44Z"/><path class="cls-98" d="M423.69,231.44a27.4,27.4,0,0,1,3.07-12.56h-.12V244h.12A27.4,27.4,0,0,1,423.69,231.44Z"/><path class="cls-99" d="M425.55,231.44a26.09,26.09,0,0,1,2.93-12h-1.83v23.93h1.83A26.09,26.09,0,0,1,425.55,231.44Z"/></g><polygon class="cls-100" points="425.65 96.52 229.32 191.71 164.83 154.47 425.65 96.52"/><polygon class="cls-101" points="425.65 96.52 260.79 209.87 325.29 247.11 425.65 96.52"/><polygon class="cls-102" points="260.79 209.87 425.65 96.52 229.32 191.71 245.06 251.51 260.79 209.87"/><polygon class="cls-103" points="226.45 190.05 425.65 96.52 229.32 191.71 226.45 190.05"/><polygon class="cls-104" points="260.79 209.87 425.65 96.52 263.37 211.36 260.79 209.87"/><polygon class="cls-105" points="383.86 255.86 206.62 295.23 248.5 319.41 248.5 319.41 250.45 320.54 273.86 318.85 285.15 340.57 315.66 358.19 383.86 255.86"/></svg>