<svg xmlns="http://www.w3.org/2000/svg" viewBox="0 0 750.98 134.02"><defs><style>.cls-1{fill:#3c3c3c;}.cls-2{fill:#141414;}.cls-3{fill:#00d5da;}.cls-4{fill:#ff2250;}.cls-5{fill:#fff;}</style></defs><title>Fichier 1</title><g id="Calque_2" data-name="Calque 2"><g id="OBJECT"><path class="cls-1" d="M566,29.13h59.78a7,7,0,0,1-7,7H559A7,7,0,0,1,566,29.13Z"/><path class="cls-1" d="M639.65,55.46H619.19a7,7,0,0,1,7-7h20.45A7,7,0,0,1,639.65,55.46Z"/><path class="cls-1" d="M677.47,55.46H657a7,7,0,0,1,7-7h20.45A7,7,0,0,1,677.47,55.46Z"/><path class="cls-1" d="M36,37.37H0v-9H45A9,9,0,0,1,36,37.37Z"/><path class="cls-1" d="M159.73,120.54H100a7,7,0,0,1,7-7h59.78A7,7,0,0,1,159.73,120.54Z"/><path class="cls-1" d="M88.53,41.85h-66a9,9,0,0,1,9-9h66A9,9,0,0,1,88.53,41.85Z"/><path class="cls-1" d="M751,101.44H657.7a5.21,5.21,0,0,1,5.21-5.21H751Z"/><path class="cls-1" d="M631,114.51h22.4a5.21,5.21,0,0,1-5.21,5.21h-22.4A5.21,5.21,0,0,1,631,114.51Z"/><path class="cls-1" d="M114.26,111.13H93.81a7,7,0,0,1,7-7H121.3A7,7,0,0,1,114.26,111.13Z"/><path class="cls-1" d="M303.62,15.3H183.07a4.48,4.48,0,0,1,4.48-4.48H308.1A4.48,4.48,0,0,1,303.62,15.3Z"/><path class="cls-2" d="M561.4,20.39H440.86a4.48,4.48,0,0,1,4.48-4.48H565.88A4.48,4.48,0,0,1,561.4,20.39Z"/><path class="cls-1" d="M168.4,15.3h-50.5a4.48,4.48,0,0,1,4.48-4.48h50.5A4.48,4.48,0,0,1,168.4,15.3Z"/><path class="cls-3" d="M260.85,34.45H290.5a0,0,0,0,1,0,0v1.27a4.91,4.91,0,0,1-4.91,4.91H255.94a0,0,0,0,1,0,0V39.36A4.91,4.91,0,0,1,260.85,34.45Z"/><polygon class="cls-4" points="262.26 88.46 262.26 69.25 210.27 104.45 201.22 104.45 201.22 110.58 239.79 110.58 239.79 134.02 262.26 134.02 262.26 110.58 276.43 110.58 276.43 88.46 262.26 88.46"/><path class="cls-4" d="M221.21,6.64,182,60.4h19.21a8.84,8.84,0,0,1-8.84,8.85H175.55l-8.78,12,2.07,23.16h41.35l32.72-22.12h0l13-8.79V6.64ZM192.52,82.33l40.94-56v56Z"/><polygon class="cls-5" points="271.73 88.46 271.73 73.25 216.59 110.58 249.26 110.58 249.24 134.02 271.73 134.02 271.73 110.58 285.9 110.58 285.9 88.46 271.73 88.46"/><path class="cls-5" d="M261,48.33h4.44V6.64H230.68L191.47,60.4h9.75a8.84,8.84,0,0,1-8.84,8.85H185l-8.78,12,2.07,23.16h32l32.67-22.12H202l31.47-43,9.47-13v56l13-8.8,9.47-6.4V53.36h-9.47A5,5,0,0,1,261,48.33Z"/><rect class="cls-3" x="285.9" y="88.46" width="9.4" height="22.12"/><rect class="cls-3" x="265.41" y="6.64" width="9.41" height="41.69"/><polygon class="cls-3" points="265.41 53.36 274.81 53.36 274.81 60.75 265.41 67.13 265.41 53.36"/><polygon class="cls-3" points="271.73 73.25 281.13 66.34 281.13 88.45 271.73 88.45 271.73 73.25"/><path class="cls-4" d="M152.95,60.4h14.11a0,0,0,0,1,0,0v1.81a7,7,0,0,1-7,7H145.91a0,0,0,0,1,0,0V67.44a7,7,0,0,1,7-7Z"/><path class="cls-5" d="M255.16,28.57h27.53a0,0,0,0,1,0,0v1.81a7,7,0,0,1-7,7H248.12a0,0,0,0,1,0,0V35.61A7,7,0,0,1,255.16,28.57Z"/><path class="cls-4" d="M183.57,43.3h12.66a0,0,0,0,1,0,0v1a4,4,0,0,1-4,4H179.57a0,0,0,0,1,0,0v-1A4,4,0,0,1,183.57,43.3Z"/><path class="cls-5" d="M281.93,99.12h25.24a0,0,0,0,1,0,0v1a4,4,0,0,1-4,4H277.93a0,0,0,0,1,0,0v-1A4,4,0,0,1,281.93,99.12Z"/><path class="cls-5" d="M204.45,73.25h12.66a0,0,0,0,1,0,0v1a4,4,0,0,1-4,4H200.45a0,0,0,0,1,0,0v-1A4,4,0,0,1,204.45,73.25Z"/><path class="cls-4" d="M220.59,64.61H227a0,0,0,0,1,0,0v1a4,4,0,0,1-4,4h-6.37a0,0,0,0,1,0,0v-1A4,4,0,0,1,220.59,64.61Z"/><path class="cls-3" d="M279.95,115.6h6.37a0,0,0,0,1,0,0v1a4,4,0,0,1-4,4h-6.37a0,0,0,0,1,0,0v-1A4,4,0,0,1,279.95,115.6Z"/><path class="cls-4" d="M224.82,120.63h18.41a0,0,0,0,1,0,0v5a0,0,0,0,1,0,0H220.82a0,0,0,0,1,0,0v-1A4,4,0,0,1,224.82,120.63Z"/><path class="cls-3" d="M274,79.24h17.28a0,0,0,0,1,0,0v.94a3.67,3.67,0,0,1-3.67,3.67H274a0,0,0,0,1,0,0V79.24A0,0,0,0,1,274,79.24Z"/><path class="cls-5" d="M224.06,82.34h24.08a0,0,0,0,1,0,0v1.32A5.13,5.13,0,0,1,243,88.79h-19a0,0,0,0,1,0,0V82.34A0,0,0,0,1,224.06,82.34Z"/><path class="cls-4" d="M221.78,11.86h18.83a0,0,0,0,1,0,0v.9a3.5,3.5,0,0,1-3.5,3.5H221.78a0,0,0,0,1,0,0v-4.4A0,0,0,0,1,221.78,11.86Z"/><path class="cls-5" d="M161.07,88.45h26.83a0,0,0,0,1,0,0v4.2a0,0,0,0,1,0,0H164.41a3.34,3.34,0,0,1-3.34-3.34v-.86A0,0,0,0,1,161.07,88.45Z"/><rect class="cls-3" x="302.59" y="108.29" width="4.58" height="4.58"/><rect class="cls-4" x="211.35" width="4.58" height="4.58"/><path class="cls-4" d="M299.44,73.25h30.47a0,0,0,0,1,0,0v1.07a4.14,4.14,0,0,1-4.14,4.14H295.3a0,0,0,0,1,0,0V77.39A4.14,4.14,0,0,1,299.44,73.25Z"/><path class="cls-3" d="M378.27,5.39h50.39a0,0,0,0,1,0,0v1a4,4,0,0,1-4,4H374.27a0,0,0,0,1,0,0v-1A4,4,0,0,1,378.27,5.39Z"/><path class="cls-4" d="M331.84,118.12H344.5a0,0,0,0,1,0,0v1a4,4,0,0,1-4,4H327.84a0,0,0,0,1,0,0v-1A4,4,0,0,1,331.84,118.12Z"/><path class="cls-4" d="M389.22,90.55h27.53a0,0,0,0,1,0,0v1.81a7,7,0,0,1-7,7H382.18a0,0,0,0,1,0,0V97.59A7,7,0,0,1,389.22,90.55Z"/><path class="cls-4" d="M425,61.76V79.21c0,33.89-23.45,51.87-48.33,53.9-21.4,1.76-43.84-8.31-53.22-30.24l19.42-13.14a32.9,32.9,0,0,0,1.84,5.13c6,13.15,19.52,18.8,32,16.9,12.83-1.92,24.51-11.85,25.59-29.75h12.85a4.4,4.4,0,0,0,4.4-4.4V76.47H402.4V61.76a38.6,38.6,0,0,0-1.57-11.24l19.34-13.09a49.51,49.51,0,0,1,1.95,5.06A61.68,61.68,0,0,1,425,61.76Z"/><path class="cls-4" d="M414,35,402.07,43q-.36-.72-.75-1.4a21.44,21.44,0,0,0-1.22-2c-.29-.45-.6-.89-.93-1.32,0,0,0,0,0,0q-.55-.72-1.13-1.4c-.34-.4-.69-.79-1.06-1.16q-.23-.25-.45-.45l-.38-.36c-.3-.3-.62-.59-.93-.86s-.64-.55-1-.82-.69-.54-1-.79a.23.23,0,0,0-.09-.06c-.2-.15-.42-.3-.63-.44-.41-.29-.83-.57-1.27-.83l-1.11-.64-.38-.2q-.64-.34-1.28-.64l-.06,0c-.5-.24-1-.47-1.53-.67s-1.06-.41-1.58-.59-1.08-.35-1.63-.5a26.74,26.74,0,0,0-3.31-.73l-1.17-.19H379c-.38-.05-.75-.09-1.12-.11-.52-.05-1-.09-1.55-.1l-1.24,0a29.71,29.71,0,0,0-4.73.35c-16.23-2.43-34.25,7.76-34.95,30.83h-.48a5,5,0,0,0-3.37,1.3l-.19.18a5.06,5.06,0,0,0-1.47,3.56h5.48V76.73c0,3.75,2.83,11.91,3.76,15.25l.08.25-11.87,8-7.54,5.09c-2.89-6.77-7.05-19.63-7.05-28.65V59.28c0-38.22,29.7-56.15,57.67-53.9C388.49,6.83,405.82,16.7,414,35Z"/><path class="cls-3" d="M438.08,80.27a6.16,6.16,0,0,0-1.81,4.36h7.38c-2.68,34.44-30.93,50.64-57.58,48.48-18.26-1.47-35.76-11.56-43.76-30.24l11.83-8c6,13.15,19.52,18.8,32,16.93h0c16.59,2.49,35.08-8.36,35.08-32.56V61.76c0-4.15-2.51-13.17-3.52-16.52l11.88-7.81,7.52-4.93c3.09,6.9,6.77,19.94,6.77,29.26v16.7h-1.41A6.17,6.17,0,0,0,438.08,80.27Z"/><path class="cls-3" d="M354.2,76.73a40.29,40.29,0,0,0,1.33,10.53L336.12,100.4a53.1,53.1,0,0,1-1.87-5.09,62.3,62.3,0,0,1-2.68-18.57V62.91H354.2Z"/><path class="cls-3" d="M432.8,35.3,413.38,48.39a32.56,32.56,0,0,0-2.09-5.24c-6.14-12.12-19-17.5-31-16C367,28.8,354.81,39,354.23,57.88H334.94a5,5,0,0,0-3.37,1.3C331.62,24.79,355.75,7,381,5.5,401.81,4.29,423.39,14.26,432.8,35.3Z"/><path class="cls-5" d="M434.44,61.76V79.21c0,33.91-23.5,51.9-48.38,53.9a56.68,56.68,0,0,1-9.36,0c-18.27-1.45-35.8-11.53-43.81-30.24l11.85-8,7.57-5.13a33.17,33.17,0,0,0,1.82,5.12,29.15,29.15,0,0,0,22.57,16.91,31.45,31.45,0,0,0,9.41,0h0c12.81-1.94,24.5-11.86,25.59-29.76h3.43a4.4,4.4,0,0,0,4.4-4.4V76.47h-7.75V61.76a38.54,38.54,0,0,0-1.57-11.24l11.88-8,7.46-5.06a51.2,51.2,0,0,1,1.95,5A61.4,61.4,0,0,1,434.44,61.76Z"/><path class="cls-5" d="M423.39,35l-12.1,8.19L404,48a33,33,0,0,0-2-5c-.24-.48-.48-.94-.75-1.4a21.44,21.44,0,0,0-1.22-2c-.29-.45-.6-.89-.93-1.32,0,0,0,0,0,0q-.55-.72-1.13-1.4c-.34-.4-.69-.79-1.06-1.16q-.23-.25-.45-.45l-.38-.36c-.3-.3-.62-.59-.93-.86s-.64-.55-1-.82-.68-.54-1-.79a.23.23,0,0,0-.09-.06c-.2-.15-.42-.3-.63-.44-.41-.29-.83-.57-1.27-.83l-1.11-.64-.38-.2q-.64-.34-1.28-.64l-.06,0c-.5-.24-1-.47-1.53-.67s-1.06-.41-1.58-.59-1.08-.35-1.63-.5a32.28,32.28,0,0,0-3.31-.73l-1.17-.19H379c-.38,0-.74-.09-1.12-.11s-1-.09-1.55-.1l-1.24,0a29.71,29.71,0,0,0-4.73.35c-13.09,2-25,12.21-25.53,30.83h-9.9a5,5,0,0,0-3.37,1.3l-.19.18a5.06,5.06,0,0,0-1.47,3.56h14.9V76.73a40.93,40.93,0,0,0,1.32,10.53l-7,4.73-4.9,3.32-7.53,5.11c-.69-1.65-1.31-3.34-1.86-5.11a62.42,62.42,0,0,1-2.68-18.57V59.28c0-33.93,23.41-51.88,48.25-53.9A56.86,56.86,0,0,1,381,5.5C398.62,7.26,415.42,17.09,423.39,35Z"/><path class="cls-5" d="M382.83,33.11h27.53a0,0,0,0,1,0,0v1.81a7,7,0,0,1-7,7H375.8a0,0,0,0,1,0,0V40.15A7,7,0,0,1,382.83,33.11Z"/><path class="cls-5" d="M314.07,35H330.5a0,0,0,0,1,0,0v1a4,4,0,0,1-4,4H310.07a0,0,0,0,1,0,0V39A4,4,0,0,1,314.07,35Z"/><path class="cls-3" d="M433.47,102.14h17.28a0,0,0,0,1,0,0v.94a3.67,3.67,0,0,1-3.67,3.67H433.47a0,0,0,0,1,0,0v-4.61A0,0,0,0,1,433.47,102.14Z"/><path class="cls-5" d="M418,109.64h24.08a0,0,0,0,1,0,0V111a5.13,5.13,0,0,1-5.13,5.13H418a0,0,0,0,1,0,0v-6.45A0,0,0,0,1,418,109.64Z"/><path class="cls-4" d="M307.1,18.15H335a0,0,0,0,1,0,0V19a3.5,3.5,0,0,1-3.5,3.5H303.6a0,0,0,0,1,0,0v-.9A3.5,3.5,0,0,1,307.1,18.15Z"/><path class="cls-4" d="M313.42,127.72h23.49a0,0,0,0,1,0,0v.86a3.34,3.34,0,0,1-3.34,3.34H310.08a0,0,0,0,1,0,0v-.86A3.34,3.34,0,0,1,313.42,127.72Z"/><rect class="cls-5" x="312.76" y="113.32" width="4.58" height="4.58"/><rect class="cls-3" x="451.27" y="66.97" width="4.58" height="4.58"/><rect class="cls-3" x="363.37" y="50.51" width="4.58" height="4.58"/><path class="cls-5" d="M349.55,95.09h39.26a0,0,0,0,1,0,0V96.9a7,7,0,0,1-7,7H342.51a0,0,0,0,1,0,0v-1.81A7,7,0,0,1,349.55,95.09Z"/><path class="cls-4" d="M459.25,74.81h27.53a0,0,0,0,1,0,0v1.81a7,7,0,0,1-7,7H452.21a0,0,0,0,1,0,0V81.85A7,7,0,0,1,459.25,74.81Z"/><path class="cls-3" d="M567.51,76.15h24.63a0,0,0,0,1,0,0v1.27a4.91,4.91,0,0,1-4.91,4.91H562.6a0,0,0,0,1,0,0V81.06A4.91,4.91,0,0,1,567.51,76.15Z"/><path class="cls-4" d="M474.41,120.06h18.34a0,0,0,0,1,0,0v1.27a4.91,4.91,0,0,1-4.91,4.91H469.5a0,0,0,0,1,0,0V125A4.91,4.91,0,0,1,474.41,120.06Z"/><path class="cls-4" d="M575.3,88.45v22.12H561.13V134H538.67V117h11.49a6.44,6.44,0,0,0,6.45-6.45H500.09v-6.12h9.05l52-35.2v19.2Z"/><path class="cls-4" d="M520.07,6.64l-14.9,20.43-3.66,5L493.35,43.3l-3.67,5L470.37,74.81l-4.72,6.48.21,2.38.43,4.79.38,4.2,1.06,11.8h41.35l6.83-4.62,25.89-17.5h0l11.78-8,1.22-.83V6.64ZM491.39,82.33l41-56v56Z"/><path class="cls-5" d="M584.77,88.45v22.12H570.6V134H548.12V117h2a6.44,6.44,0,0,0,6.45-6.45H515.47l45.66-30.91,9.47-6.41v15.2Z"/><path class="cls-5" d="M529.56,6.64l-3.81,5.22-3.21,4.4-7.88,10.81-3.67,5-31.14,42.7-4.73,6.48.21,2.38.43,4.79.38,4.2,1.06,11.8h32L516,99.83l25.85-17.5h-41l3-4,3.67-5,24.85-34,9.47-12.94v56l11.78-8,1.22-.83,6.31-4.26,3.16-2.14V53.36h-9.47a5,5,0,0,1,5-5h4.44V6.64Z"/><rect class="cls-3" x="584.77" y="88.46" width="9.4" height="22.12"/><rect class="cls-3" x="564.29" y="6.64" width="9.39" height="41.69"/><polygon class="cls-3" points="564.29 53.36 573.68 53.36 573.68 60.75 564.29 67.13 564.29 53.36"/><polygon class="cls-3" points="570.6 73.25 580.01 66.34 580.01 88.45 570.61 88.45 570.6 73.25"/><path class="cls-5" d="M552.87,6.64h39.26a0,0,0,0,1,0,0V8.45a7,7,0,0,1-7,7H545.83a0,0,0,0,1,0,0V13.68a7,7,0,0,1,7-7Z"/><path class="cls-4" d="M482.45,43.3h12.66a0,0,0,0,1,0,0v1a4,4,0,0,1-4,4H478.45a0,0,0,0,1,0,0v-1A4,4,0,0,1,482.45,43.3Z"/><path class="cls-5" d="M580.81,99.12H606a0,0,0,0,1,0,0v1a4,4,0,0,1-4,4H576.81a0,0,0,0,1,0,0v-1A4,4,0,0,1,580.81,99.12Z"/><path class="cls-5" d="M503.33,73.25H516a0,0,0,0,1,0,0v1a4,4,0,0,1-4,4H499.33a0,0,0,0,1,0,0v-1A4,4,0,0,1,503.33,73.25Z"/><path class="cls-4" d="M519.47,64.61h6.37a0,0,0,0,1,0,0v1a4,4,0,0,1-4,4h-6.37a0,0,0,0,1,0,0v-1A4,4,0,0,1,519.47,64.61Z"/><path class="cls-3" d="M578.82,115.6h6.37a0,0,0,0,1,0,0v1a4,4,0,0,1-4,4h-6.37a0,0,0,0,1,0,0v-1A4,4,0,0,1,578.82,115.6Z"/><path class="cls-4" d="M545.88,124.88h18.41a0,0,0,0,1,0,0v1a4,4,0,0,1-4,4H541.88a0,0,0,0,1,0,0v-1A4,4,0,0,1,545.88,124.88Z"/><path class="cls-5" d="M503.37,99.84h17.28a0,0,0,0,1,0,0v.94a3.67,3.67,0,0,1-3.67,3.67H503.37a0,0,0,0,1,0,0V99.84A0,0,0,0,1,503.37,99.84Z"/><path class="cls-4" d="M520.65,11.86h18.83a0,0,0,0,1,0,0v.9a3.5,3.5,0,0,1-3.5,3.5H520.65a0,0,0,0,1,0,0v-4.4A0,0,0,0,1,520.65,11.86Z"/><path class="cls-5" d="M459.95,88.45h26.83a0,0,0,0,1,0,0v4.2a0,0,0,0,1,0,0H463.29a3.34,3.34,0,0,1-3.34-3.34v-.86A0,0,0,0,1,459.95,88.45Z"/><rect class="cls-3" x="601.47" y="108.29" width="4.58" height="4.58"/><rect class="cls-5" x="530.25" y="113.32" width="4.58" height="4.58"/><rect class="cls-4" x="459.95" y="64.84" width="4.58" height="4.58"/><path class="cls-5" d="M478.74,27.08h41.58a0,0,0,0,1,0,0v1a4,4,0,0,1-4,4H474.74a0,0,0,0,1,0,0v-1A4,4,0,0,1,478.74,27.08Z"/><path class="cls-2" d="M132.44,94.75H24.64a4.2,4.2,0,0,1,4.2-4.2h107.8A4.2,4.2,0,0,1,132.44,94.75Z"/><path class="cls-2" d="M690.74,85.95h-57.8a4.2,4.2,0,0,1,4.2-4.2h57.8A4.2,4.2,0,0,1,690.74,85.95Z"/></g></g></svg>