<svg xmlns="http://www.w3.org/2000/svg" viewBox="0 0 243.63 53.21"><defs><style>.cls-1{fill:#fff;}.cls-2{fill:#6ccff6;}</style></defs><title>Fichier 2</title><g id="Calque_2" data-name="Calque 2"><g id="Calque_1_-_copie" data-name="Calque 1 - copie"><path class="cls-1" d="M41.08.58v8H25.42v44.1H15.73V8.53H0v-8Z"/><path class="cls-1" d="M85.67,52.63H78.18A3.27,3.27,0,0,1,76.11,52a3.58,3.58,0,0,1-1.17-1.57L71.05,39.82H49.49L45.6,50.44a3.41,3.41,0,0,1-1.13,1.51,3.19,3.19,0,0,1-2.07.68H34.87L55.32.58h9.9ZM52,33.41h16.6L62.23,16.1q-.43-1.15-1-2.72t-1-3.4q-.5,1.84-1,3.42t-1,2.77Z"/><path class="cls-1" d="M122.49,40.36a1.82,1.82,0,0,1,1.37.61l3.82,4.14a21,21,0,0,1-7.79,6,26.85,26.85,0,0,1-11.11,2.09,26.25,26.25,0,0,1-10.42-2,23,23,0,0,1-7.9-5.51,24.1,24.1,0,0,1-5-8.42A31.6,31.6,0,0,1,83.69,26.6a28.78,28.78,0,0,1,1.94-10.75A24.27,24.27,0,0,1,99.54,2,29,29,0,0,1,110.4,0a25.64,25.64,0,0,1,10.13,1.85A23.7,23.7,0,0,1,128,6.77l-3.24,4.5A3,3,0,0,1,124,12a2.1,2.1,0,0,1-1.24.32,2.83,2.83,0,0,1-1.69-.65,21.05,21.05,0,0,0-2.2-1.4,17.93,17.93,0,0,0-3.37-1.4,19.44,19.44,0,0,0-11.92.63,15,15,0,0,0-5.29,3.65A16.82,16.82,0,0,0,94.83,19a22.19,22.19,0,0,0-1.24,7.65,22.8,22.8,0,0,0,1.24,7.81,17.16,17.16,0,0,0,3.37,5.76,14.36,14.36,0,0,0,5,3.58A15.46,15.46,0,0,0,109.39,45a27,27,0,0,0,3.58-.22,15.19,15.19,0,0,0,3-.68,13.07,13.07,0,0,0,2.56-1.21,16,16,0,0,0,2.39-1.82,3.42,3.42,0,0,1,.76-.52A1.91,1.91,0,0,1,122.49,40.36Z"/><path class="cls-1" d="M171.51.58v8H155.85v44.1h-9.68V8.53H130.43v-8Z"/><path class="cls-2" d="M186.41,52.63h-9.72V.58h9.72Z"/><path class="cls-1" d="M203.24,34.31V52.63h-9.68V.58h17a29.73,29.73,0,0,1,9,1.22,17.42,17.42,0,0,1,6.3,3.42,13.39,13.39,0,0,1,3.67,5.26,18.35,18.35,0,0,1,1.19,6.7,18.5,18.5,0,0,1-1.26,6.93,14.38,14.38,0,0,1-3.78,5.42,17.6,17.6,0,0,1-6.3,3.53,28,28,0,0,1-8.86,1.26Zm0-7.56h7.27a14.58,14.58,0,0,0,4.64-.67,8.63,8.63,0,0,0,3.28-1.91,7.83,7.83,0,0,0,1.94-3,11.58,11.58,0,0,0,.65-4,10.51,10.51,0,0,0-.65-3.78,7.48,7.48,0,0,0-1.94-2.88,8.65,8.65,0,0,0-3.28-1.82,15.38,15.38,0,0,0-4.64-.63h-7.27Z"/><path class="cls-1" d="M232.72,47.74a5.53,5.53,0,0,1,.41-2.12,5.08,5.08,0,0,1,1.15-1.73A5.65,5.65,0,0,1,236,42.73a5.42,5.42,0,0,1,2.16-.43,5.33,5.33,0,0,1,2.12.43,5.29,5.29,0,0,1,2.88,2.88,5.47,5.47,0,0,1,0,4.27A5.49,5.49,0,0,1,242,51.59a5.2,5.2,0,0,1-1.73,1.13,5.54,5.54,0,0,1-2.12.41,5.63,5.63,0,0,1-2.16-.41,5.38,5.38,0,0,1-1.75-1.13,5.11,5.11,0,0,1-1.15-1.71A5.49,5.49,0,0,1,232.72,47.74Z"/></g></g></svg>